<?xml version="1.0" encoding="UTF-8"?>
<svg id="_レイヤー_2" data-name="レイヤー 2" xmlns="http://www.w3.org/2000/svg" xmlns:xlink="http://www.w3.org/1999/xlink" viewBox="0 0 1210 710">
  <defs>
    <style>
      .cls-1, .cls-2 {
        fill: none;
      }

      .cls-3 {
        filter: url(#drop-shadow-1);
      }

      .cls-2, .cls-4 {
        stroke: #22004a;
        stroke-miterlimit: 10;
      }

      .cls-4, .cls-5 {
        fill: #22004a;
      }
    </style>
    <filter id="drop-shadow-1" x="-20" y="-20" width="1258" height="758" filterUnits="userSpaceOnUse">
      <feOffset dx="4" dy="4"/>
      <feGaussianBlur result="blur" stdDeviation="8"/>
      <feFlood flood-color="#fff" flood-opacity=".7"/>
      <feComposite in2="blur" operator="in"/>
      <feComposite in="SourceGraphic"/>
    </filter>
  </defs>
  <g id="_レイヤー_3" data-name="レイヤー 3">
    <g id="Rio" class="cls-3">
      <rect class="cls-1" width="1210" height="710"/>
      <g id="R">
        <path class="cls-4" d="M314.5,611.5c-46.4603271-5.9725952-107-39-54-73,47.5614329-30.5111079,153-81,56-100-52.4632952-10.2763155-141.4471227,3.6168867-156.0435181-35.9121094-12.9564819-35.0878906,63.475769-129.6942139,165.9955139-194.5878906,184.0480042-116.5,389.2660828-92.9168549,415.0480042-47.5s-82.6750488,139.2537842-246.3375244,202.1268921c0,0,239.3375244-127.1268921,196.3375244-186.1268921s-201-38-240-23c-38.4035034,14.7705841-132.3830261,50.8480835-222,149-84,92,20.0559683,114.549316,46,118,203,27,72,76,34,100-18.5622848,11.7235483-85,59,5,91Z"/>
        <path class="cls-4" d="M474.5,181.5h130.2167358s-51.2167358-1-68.2167358,26c-16.2660832,25.8343674-25,53-41,140-17.7161407,96.331515-23.1533656,133.7362952-20,170,2,23,29,23,29,23h-130s43,0,62-27c20.4117703-29.0061999,28.3188075-81.0519811,43-166,14.552093-84.201026,23.5921092-121.447345,20-143-4-24-25-23-25-23Z"/>
        <path class="cls-4" d="M621.5,325.5s142.5615251-54.2632982,47,56c-130,150,75,159,75,159,0,0-216.9371559,20.7971909-125-110,97-138,14.8198536-104.4854286,3-105Z"/>
      </g>
      <g id="i">
        <g>
          <path class="cls-5" d="M838.5,540.5c-19.3073709-4.0647097-25-29.1408529-25-53v-45h-11s-.0000007,20,0,45c.0000005,23.3803483-5.9999987,48.4999997-25.9999999,53h62Z"/>
          <path class="cls-5" d="M777.5,365.5c19.3073709,4.0647097,25,29.1408529,25,53v45h11s.0000007-20,0-45c-.0000005-23.3803483,5.9999987-48.4999997,25.9999999-53h-62Z"/>
          <path class="cls-5" d="M740.6283761,281.7645143l25.1481894-3.2282055c19.3177836-2.4797719,34.3720289-17.9569286,36.315786-37.3359854l2.5304132-25.2279568,3.2110119,25.1369135c2.4703103,19.3384451,17.9654787,34.4102101,37.364927,36.3439368l25.2162088,2.5135382-25.3116734,3.4797522c-19.01769,2.6144794-33.818655,17.8312406-35.9053799,36.91405l-2.7773353,25.3983455-3.3412013-25.2219751c-2.5411374-19.182473-17.9006046-34.1222446-37.1461023-36.1310914l-25.3048441-2.641322Z"/>
        </g>
        <g>
          <path class="cls-4" d="M838.5,540.5c-19.3073709-4.0647097-25-29.1408529-25-53v-45h-11s-.0000007,20,0,45c.0000005,23.3803483-5.9999987,48.4999997-25.9999999,53h62Z"/>
          <path class="cls-4" d="M777.5,365.5c19.3073709,4.0647097,25,29.1408529,25,53v45h11s.0000007-20,0-45c-.0000005-23.3803483,5.9999987-48.4999997,25.9999999-53h-62Z"/>
          <path class="cls-4" d="M740.6283761,281.7645143l25.1481894-3.2282055c19.3177836-2.4797719,34.3720289-17.9569286,36.315786-37.3359854l2.5304132-25.2279568,3.2110119,25.1369135c2.4703103,19.3384451,17.9654787,34.4102101,37.364927,36.3439368l25.2162088,2.5135382-25.3116734,3.4797522c-19.01769,2.6144794-33.818655,17.8312406-35.9053799,36.91405l-2.7773353,25.3983455-3.3412013-25.2219751c-2.5411374-19.182473-17.9006046-34.1222446-37.1461023-36.1310914l-25.3048441-2.641322Z"/>
        </g>
        <g>
          <path class="cls-2" d="M838.5,540.5c-19.3073709-4.0647097-25-29.1408529-25-53v-45h-11s-.0000007,20,0,45c.0000005,23.3803483-5.9999987,48.4999997-25.9999999,53h62Z"/>
          <path class="cls-2" d="M777.5,365.5c19.3073709,4.0647097,25,29.1408529,25,53v45h11s.0000007-20,0-45c-.0000005-23.3803483,5.9999987-48.4999997,25.9999999-53h-62Z"/>
          <path class="cls-2" d="M740.6283761,281.7645143l25.1481894-3.2282055c19.3177836-2.4797719,34.3720289-17.9569286,36.315786-37.3359854l2.5304132-25.2279568,3.2110119,25.1369135c2.4703103,19.3384451,17.9654787,34.4102101,37.364927,36.3439368l25.2162088,2.5135382-25.3116734,3.4797522c-19.01769,2.6144794-33.818655,17.8312406-35.9053799,36.91405l-2.7773353,25.3983455-3.3412013-25.2219751c-2.5411374-19.182473-17.9006046-34.1222446-37.1461023-36.1310914l-25.3048441-2.641322Z"/>
        </g>
      </g>
      <g id="o">
        <path class="cls-4" d="M959.5,540.5122888s-87.5,4.4780735-87.5-87.9837295c0-90.3472895,87.5-87.4825797,87.5-87.4825797v.8884265s-58-3.3305588-58,85.6450758c0,87.825727,58,88.0443804,58,88.0443804v.8884265Z"/>
        <path class="cls-4" d="M960.5,540.5122888s87.5,4.4780735,87.5-87.9837295c0-90.3472895-87.5-87.4825797-87.5-87.4825797v.8884265s58-3.3305588,58,85.6450758c0,87.825727-58,88.0443804-58,88.0443804v.8884265Z"/>
        <path class="cls-4" d="M938.1152908,433.1231619l13.5846366-1.7438233c10.4351477-1.3395319,18.5672023-9.7000363,19.6171878-20.1682827l1.3668874-13.6277256,1.7345356,13.5785455c1.3344208,10.4463086,9.7046549,18.5878272,20.1839164,19.6323944l13.6213795,1.3577718-13.6729479,1.8797047c-10.2730421,1.4122986-18.2682789,9.6321416-19.3954932,19.9403601l-1.5002706,13.7197668-1.8048618-13.6244944c-1.3726805-10.3620551-9.6696109-18.432273-20.065711-19.5174188l-13.6692588-1.4267985Z"/>
      </g>
    </g>
  </g>
</svg>