<?xml version="1.0" encoding="UTF-8"?>
<svg id="_レイヤー_2" data-name="レイヤー 2" xmlns="http://www.w3.org/2000/svg" viewBox="0 0 1042.3588259 973.8867982">
  <defs>
    <style>
      .cls-1 {
        fill: #fff;
        opacity: .3;
      }

      .cls-2 {
        fill: #284a85;
        opacity: .8;
      }
    </style>
  </defs>
  <g id="_レイヤー_1-2" data-name="レイヤー 1">
    <g>
      <path class="cls-2" d="M217.9961758,205.3815119c-89.1926592,61.2684046-200.8576101,202.7892232-197.9401783,350.48164,3.897042,197.2835498,212.9456758,353.7949841,385.4071114,399.5463504,191.9513635,50.9217445,482.3430558,5.1210874,588.4399044-245.2429059,110.1750906-259.9877001,24.0056036-508.636847-172.9068375-635.7850845-239.0144563-154.3339095-502.2308137,61.7794237-603,131Z"/>
      <path class="cls-1" d="M197.9961758,185.3815119C108.8035167,246.6499165-2.8614342,388.1707351.0559976,535.8631519c3.897042,197.2835498,212.9456758,353.7949841,385.4071114,399.5463504,191.9513635,50.9217445,482.3430558,5.1210874,588.4399044-245.2429059,110.1750906-259.9877001,24.0056036-508.636847-172.9068375-635.7850845-239.0144563-154.3339095-502.2308137,61.7794237-603,131Z"/>
    </g>
  </g>
</svg>