<?xml version="1.0" encoding="UTF-8"?>
<svg id="_レイヤー_2" data-name="レイヤー 2" xmlns="http://www.w3.org/2000/svg" viewBox="0 0 1439.2610262 1592.9219798">
  <defs>
    <style>
      .cls-1 {
        opacity: .2;
      }

      .cls-1, .cls-2, .cls-3 {
        fill: #fff;
      }

      .cls-2 {
        opacity: .3;
      }

      .cls-4 {
        opacity: .7;
      }

      .cls-4, .cls-5 {
        fill: #284a85;
      }

      .cls-5, .cls-6 {
        opacity: .8;
      }
    </style>
  </defs>
  <g id="_レイヤー_1-2" data-name="レイヤー 1">
    <g>
      <g id="skills-bg" class="cls-6">
        <g>
          <path class="cls-3" d="M61.0320361,58.0789935c-20.8796461,14.3426894-47.0199661,47.4721491-46.337007,82.0463553.912282,46.1832929,49.8497342,82.821996,90.222269,93.5322085,44.9350493,11.9205775,112.9145873,1.1988261,137.7514368-57.410387,25.7915497-60.8620846,5.6196161-119.069859-40.4768017-148.8347548-55.9523318-36.1289532-117.5702322,14.4623169-141.1598971,30.666578Z"/>
          <path class="cls-3" d="M46.3501158,43.3970732C25.4704697,57.7397626-.6698504,90.8692223.0131088,125.4434285c.912282,46.1832929,49.8497342,82.821996,90.222269,93.5322085,44.9350493,11.9205775,112.9145873,1.1988261,137.7514368-57.410387,25.7915497-60.8620846,5.6196161-119.069859-40.4768017-148.8347548-55.9523318-36.1289532-117.5702322,14.4623169-141.1598971,30.666578Z"/>
        </g>
        <g>
          <path class="cls-4" d="M61.0320361,58.0789935c-20.8796461,14.3426894-47.0199661,47.4721491-46.337007,82.0463553.912282,46.1832929,49.8497342,82.821996,90.222269,93.5322085,44.9350493,11.9205775,112.9145873,1.1988261,137.7514368-57.410387,25.7915497-60.8620846,5.6196161-119.069859-40.4768017-148.8347548-55.9523318-36.1289532-117.5702322,14.4623169-141.1598971,30.666578Z"/>
          <path class="cls-1" d="M46.3501158,43.3970732C25.4704697,57.7397626-.6698504,90.8692223.0131088,125.4434285c.912282,46.1832929,49.8497342,82.821996,90.222269,93.5322085,44.9350493,11.9205775,112.9145873,1.1988261,137.7514368-57.410387,25.7915497-60.8620846,5.6196161-119.069859-40.4768017-148.8347548-55.9523318-36.1289532-117.5702322,14.4623169-141.1598971,30.666578Z"/>
        </g>
      </g>
      <g>
        <path class="cls-5" d="M139.1269033,1273.8285619c50.1926826,125.8975387,196.6705309,269.3471067,477.6279893,312.3837739,280.7969511,43.0120504,469.7294928-131.7545438,556.2697819-211.8062449,78.4740169-72.5901192,301.1136138-308.0886593,261.5720928-665.9061723-8.866968-80.238473-45.7243035-413.7669546-328.4077699-578.9069486C847.7085045-21.4079967,502.6020441,37.8440956,389.6236534,208.482972c-76.3262491,115.2806683,5.51607,202.5241461-89.959854,393.6853796-74.536675,149.2367618-155.6181055,158.5351308-199.087294,285.4259537-46.1522894,134.7228623-7.425191,277.9969943,38.5503979,386.2342565Z"/>
        <path class="cls-2" d="M113.9014655,1258.6808979c50.1926826,125.8975387,196.6705309,269.3471067,477.6279893,312.3837739,280.7969511,43.0120504,469.7294928-131.7545438,556.2697819-211.8062449,78.4740169-72.5901192,301.1136138-308.0886593,261.5720928-665.9061723-8.866968-80.238473-45.7243035-413.7669546-328.4077699-578.9069486C822.4830667-36.5556607,477.3766063,22.6964316,364.3982156,193.335308c-76.3262491,115.2806683,5.51607,202.5241461-89.959854,393.6853796-74.536675,149.2367618-155.6181055,158.5351308-199.087294,285.4259537-46.1522894,134.7228623-7.425191,277.9969943,38.5503979,386.2342565Z"/>
      </g>
    </g>
  </g>
</svg>